<svg width="42" height="48" viewBox="0 0 42 48" fill="none" xmlns="http://www.w3.org/2000/svg">
<g filter="url(#filter0_d_41_58)">
<path d="M36.825 10.525C36.2 8.29376 34.9625 6.53126 33.15 5.28438C30.8625 3.70626 28.2312 3.15001 25.9594 2.80938C22.8156 2.34063 19.9687 2.27501 17.2531 2.60626C14.7094 2.91876 12.7937 3.41563 11.0469 4.21876C7.62186 5.79376 5.56561 8.34063 4.93749 11.7875C4.63124 13.4625 4.42499 14.975 4.30624 16.4188C4.03124 19.7563 4.28124 22.7094 5.06874 25.4469C5.83749 28.1156 7.17811 30.0219 9.16874 31.275C9.67499 31.5938 10.325 31.825 10.9531 32.0469C11.3094 32.1719 11.6562 32.2938 11.9406 32.4281C12.2031 32.55 12.2031 32.5719 12.2 32.7906C12.1781 34.6875 12.2 38.4063 12.2 38.4063L12.2062 39.2H13.6312L13.8625 38.975C14.0156 38.8313 17.5469 35.4188 18.8062 34.0438L18.9781 33.8531C19.1937 33.6031 19.1937 33.6031 19.4156 33.6C21.1156 33.5656 22.8531 33.5 24.5781 33.4063C26.6687 33.2938 29.0906 33.0906 31.3719 32.1406C33.4594 31.2688 34.9844 29.8844 35.9 28.0281C36.8562 26.0906 37.4219 23.9938 37.6344 21.6156C38.0094 17.4344 37.7437 13.8063 36.825 10.525ZM29.3062 26.7844C28.7812 27.6375 28 28.2313 27.0781 28.6156C26.4031 28.8969 25.7156 28.8375 25.05 28.5563C19.4781 26.1969 15.1062 22.4813 12.2187 17.1375C11.6219 16.0375 11.2094 14.8375 10.7344 13.675C10.6375 13.4375 10.6437 13.1563 10.6 12.8938C10.6406 11.0156 12.0812 9.95626 13.5375 9.63751C14.0937 9.51251 14.5875 9.70938 15 10.1063C16.1437 11.1938 17.0469 12.4594 17.7281 13.8781C18.025 14.5 17.8906 15.05 17.3844 15.5125C17.2781 15.6094 17.1687 15.6969 17.0531 15.7844C15.8969 16.6531 15.7281 17.3125 16.3437 18.6219C17.3937 20.85 19.1375 22.3469 21.3906 23.275C21.9844 23.5188 22.5437 23.3969 22.9969 22.9156C23.0594 22.8531 23.1281 22.7906 23.1719 22.7156C24.0594 21.2344 25.35 21.3813 26.5406 22.225C27.3219 22.7813 28.0812 23.3688 28.8531 23.9344C30.0312 24.8 30.0219 25.6125 29.3062 26.7844ZM21.9156 12C21.6531 12 21.3906 12.0219 21.1312 12.0656C20.6937 12.1375 20.2844 11.8438 20.2094 11.4063C20.1375 10.9719 20.4312 10.5594 20.8687 10.4875C21.2125 10.4281 21.5656 10.4 21.9156 10.4C25.3812 10.4 28.2 13.2188 28.2 16.6844C28.2 17.0375 28.1719 17.3906 28.1125 17.7313C28.0469 18.1219 27.7094 18.4 27.325 18.4C27.2812 18.4 27.2375 18.3969 27.1906 18.3875C26.7562 18.3156 26.4625 17.9031 26.5344 17.4688C26.5781 17.2125 26.6 16.95 26.6 16.6844C26.6 14.1031 24.4969 12 21.9156 12ZM25.8 16.8C25.8 17.2406 25.4406 17.6 25 17.6C24.5594 17.6 24.2 17.2406 24.2 16.8C24.2 15.4781 23.1219 14.4 21.8 14.4C21.3594 14.4 21 14.0406 21 13.6C21 13.1594 21.3594 12.8 21.8 12.8C24.0062 12.8 25.8 14.5938 25.8 16.8ZM30.3687 18.5781C30.2844 18.95 29.9531 19.2 29.5875 19.2C29.5281 19.2 29.4687 19.1938 29.4094 19.1813C28.9781 19.0813 28.7094 18.6531 28.8062 18.2219C28.9219 17.7125 28.9812 17.1844 28.9812 16.6531C28.9812 12.7656 25.8156 9.60001 21.9281 9.60001C21.3969 9.60001 20.8687 9.65938 20.3594 9.77501C19.9281 9.87501 19.5 9.60313 19.4031 9.17188C19.3031 8.74063 19.575 8.31251 20.0062 8.21563C20.6312 8.07188 21.2781 8.00001 21.9281 8.00001C26.7 8.00001 30.5812 11.8813 30.5812 16.6531C30.5812 17.3031 30.5094 17.95 30.3687 18.5781Z" fill="#9B51E0"/>
</g>
<defs>
<filter id="filter0_d_41_58" x="-3" y="0" width="48" height="48" filterUnits="userSpaceOnUse" color-interpolation-filters="sRGB">
<feFlood flood-opacity="0" result="BackgroundImageFix"/>
<feColorMatrix in="SourceAlpha" type="matrix" values="0 0 0 0 0 0 0 0 0 0 0 0 0 0 0 0 0 0 127 0" result="hardAlpha"/>
<feOffset dy="4"/>
<feGaussianBlur stdDeviation="2"/>
<feComposite in2="hardAlpha" operator="out"/>
<feColorMatrix type="matrix" values="0 0 0 0 0 0 0 0 0 0 0 0 0 0 0 0 0 0 0.25 0"/>
<feBlend mode="normal" in2="BackgroundImageFix" result="effect1_dropShadow_41_58"/>
<feBlend mode="normal" in="SourceGraphic" in2="effect1_dropShadow_41_58" result="shape"/>
</filter>
</defs>
</svg>
